<?xml version="1.0" standalone="no"?>
<!DOCTYPE svg PUBLIC "-//W3C//DTD SVG 20010904//EN"
 "http://www.w3.org/TR/2001/REC-SVG-20010904/DTD/svg10.dtd">
<svg version="1.0" xmlns="http://www.w3.org/2000/svg"
 width="800.000000pt" height="520.000000pt" viewBox="0 0 800.000000 520.000000"
 preserveAspectRatio="xMidYMid meet">
<metadata>
Created by potrace 1.15, written by Peter Selinger 2001-2017
</metadata>
<g transform="translate(0.000000,520.000000) scale(0.100000,-0.100000)"
fill="#000000" stroke="none">
<path d="M2225 3730 c-3 -5 -17 -10 -31 -10 -43 0 -139 -18 -589 -111 -159
-33 -312 -64 -340 -69 -27 -6 -90 -19 -140 -30 -49 -11 -160 -34 -245 -51 -85
-17 -157 -33 -160 -36 -3 -3 9 -3 25 1 17 3 104 11 195 16 91 6 230 15 310 20
80 5 253 16 385 24 404 26 437 29 423 37 -9 6 -9 9 -1 9 6 0 14 -4 18 -9 6
-11 76 -4 89 9 7 7 -7 10 -37 10 -52 0 -59 12 -24 41 12 10 17 18 11 19 -7 0
-12 17 -12 40 -1 37 2 40 26 41 20 1 22 3 8 6 -37 10 6 22 56 16 44 -5 48 -4
48 16 0 23 -5 27 -15 11z"/>
<path d="M7305 3667 c-44 -23 -96 -49 -115 -56 -89 -36 -506 -244 -517 -259
-17 -21 -17 -37 0 -23 15 12 78 10 70 -2 -3 -5 -11 -6 -19 -3 -8 3 -17 -1 -21
-10 -8 -20 6 -32 17 -14 7 11 9 9 7 -8 -1 -12 -5 -21 -10 -19 -11 3 -67 -50
-67 -64 0 -6 5 -6 13 1 6 5 109 74 227 153 118 79 263 177 323 218 59 41 122
82 140 92 91 52 53 47 -48 -6z"/>
</g>
</svg>
